<?xml version="1.0" standalone="no"?>
<!DOCTYPE svg PUBLIC "-//W3C//DTD SVG 20010904//EN"
 "http://www.w3.org/TR/2001/REC-SVG-20010904/DTD/svg10.dtd">
<svg version="1.0" xmlns="http://www.w3.org/2000/svg"
 width="1024.000000pt" height="1024.000000pt" viewBox="0 0 1024.000000 1024.000000"
 preserveAspectRatio="xMidYMid meet">
<metadata>
Created by potrace 1.14, written by Peter Selinger 2001-2017
</metadata>
<g transform="translate(0.000000,1024.000000) scale(0.100000,-0.100000)"
fill="#000000" stroke="none">
<path d="M4655 7846 c-5 -3 -37 -8 -70 -12 l-60 -8 55 -8 c98 -13 173 -26 255
-43 44 -9 98 -18 120 -21 22 -3 49 -9 60 -14 11 -4 58 -16 105 -26 47 -9 90
-21 95 -25 6 -3 26 -9 45 -12 19 -3 51 -10 70 -16 19 -5 60 -18 90 -27 53 -16
94 -23 230 -43 36 -5 92 -15 125 -21 47 -9 93 -9 210 1 83 8 244 14 359 14
115 0 202 1 193 3 -9 2 -17 8 -17 13 0 5 -11 9 -25 9 -14 0 -25 4 -25 9 0 4
-15 11 -32 15 -18 3 -58 13 -88 22 -30 9 -70 19 -87 21 -18 3 -33 9 -33 13 0
4 -15 10 -32 13 -59 8 -153 29 -173 37 -11 5 -54 14 -95 20 -41 7 -97 17 -125
21 -271 47 -418 59 -785 64 -195 3 -359 3 -365 1z"/>
<path d="M4350 7818 c-53 -6 -108 -15 -250 -38 -36 -6 -81 -15 -100 -20 -19
-5 -49 -10 -67 -10 -17 0 -35 -4 -38 -10 -3 -5 -17 -10 -30 -10 -30 0 -145
-28 -167 -40 -10 -6 -25 -10 -33 -10 -19 0 -173 -47 -197 -60 -10 -6 -26 -10
-35 -11 -10 0 -40 -10 -66 -22 l-49 -22 314 0 c206 1 337 5 383 14 39 7 93 16
120 21 175 30 533 54 740 48 144 -4 155 -6 280 -47 72 -23 138 -47 147 -52 10
-5 27 -9 38 -9 11 0 20 -4 20 -9 0 -5 19 -12 42 -16 23 -4 49 -11 58 -15 24
-12 61 -27 113 -46 51 -18 70 -34 41 -34 -10 0 -31 -4 -48 -9 -17 -5 -58 -17
-91 -25 -121 -33 -140 -38 -160 -47 -11 -4 -36 -11 -55 -15 -19 -3 -41 -10
-50 -14 -31 -16 -66 -29 -120 -46 -30 -9 -74 -25 -97 -35 -40 -17 -44 -17 -95
0 -133 44 -157 51 -176 51 -12 0 -24 5 -27 10 -3 6 -19 10 -34 10 -15 0 -31 4
-36 9 -6 5 -35 14 -65 19 -30 6 -73 15 -95 21 -185 46 -415 88 -605 110 -58 7
-139 16 -180 22 -114 15 -557 16 -572 1 -7 -7 -18 -12 -25 -12 -13 0 -199 -90
-293 -143 -243 -134 -240 -130 -90 -124 117 4 130 7 200 40 144 67 191 87 200
87 6 0 18 4 28 9 28 14 64 28 117 46 28 10 60 22 72 27 12 6 43 8 70 5 267
-33 363 -48 363 -58 0 -5 -11 -9 -25 -9 -14 0 -25 -4 -25 -10 0 -5 -12 -10
-27 -10 -27 0 -133 -25 -168 -40 -11 -5 -49 -16 -85 -25 -36 -9 -74 -21 -85
-25 -11 -5 -37 -14 -58 -21 -20 -7 -36 -18 -34 -24 2 -5 30 -13 63 -17 79 -10
162 -23 259 -43 44 -9 95 -18 113 -22 18 -3 35 -9 38 -14 3 -5 17 -9 32 -9 15
0 47 -6 72 -14 25 -8 97 -31 160 -51 63 -20 134 -45 157 -56 24 -10 49 -19 58
-19 16 0 158 88 163 102 2 4 10 8 18 8 8 0 14 4 14 10 0 5 11 12 25 16 14 3
25 9 25 13 0 3 19 15 43 26 23 11 44 22 47 25 26 27 102 40 115 20 3 -5 19
-10 35 -10 16 0 32 -4 35 -10 3 -5 15 -10 26 -10 18 0 19 -2 5 -15 -8 -8 -22
-15 -30 -15 -9 0 -16 -4 -16 -8 0 -4 -22 -16 -50 -27 -27 -11 -50 -23 -50 -27
0 -4 -6 -8 -13 -8 -7 0 -59 -27 -116 -60 -57 -33 -106 -60 -108 -60 -5 0 -87
-54 -93 -61 -3 -4 -20 -15 -38 -27 -28 -16 -39 -18 -73 -10 -21 6 -39 14 -39
19 0 5 -11 9 -24 9 -14 0 -27 4 -30 9 -3 5 -18 11 -33 14 -16 3 -75 22 -132
41 -58 20 -114 36 -126 36 -12 0 -25 4 -31 9 -15 14 -241 72 -392 100 -29 5
-62 13 -72 16 -11 3 -52 11 -92 16 -40 5 -100 14 -133 19 -123 19 -265 29
-421 30 -132 0 -164 -3 -174 -15 -7 -8 -19 -15 -26 -15 -8 0 -14 -4 -14 -8 0
-4 -14 -16 -32 -26 -17 -11 -39 -25 -47 -32 -13 -11 -45 -35 -106 -81 -6 -5
-26 -21 -46 -38 -19 -16 -57 -48 -84 -70 -27 -22 -64 -53 -81 -70 -183 -172
-297 -292 -404 -425 -19 -24 -52 -64 -73 -89 -20 -25 -42 -51 -47 -58 -6 -7
-10 -16 -10 -22 0 -5 -4 -11 -8 -13 -8 -3 -77 -97 -107 -146 -5 -9 -29 -47
-52 -84 -24 -38 -43 -73 -43 -78 0 -6 -4 -10 -10 -10 -5 0 -10 -6 -10 -14 0
-8 -6 -21 -12 -28 -12 -12 -36 -55 -89 -158 -45 -86 -119 -252 -119 -265 0 -8
-4 -15 -10 -15 -5 0 -10 -9 -10 -20 0 -17 -18 -66 -41 -112 -5 -10 -9 -26 -9
-36 0 -10 -3 -22 -7 -26 -11 -10 -43 -118 -43 -143 0 -13 -4 -23 -9 -23 -5 0
-11 -15 -14 -32 -3 -18 -14 -75 -26 -127 -12 -52 -21 -109 -21 -127 0 -18 -4
-35 -9 -38 -32 -20 -33 -626 0 -660 5 -6 9 -22 9 -36 0 -51 64 -226 124 -340
16 -30 34 -65 40 -77 6 -13 14 -23 19 -23 4 0 7 -5 7 -11 0 -9 44 -74 60 -89
3 -3 16 -18 29 -35 37 -50 135 -149 187 -191 27 -21 51 -41 54 -44 45 -45 216
-157 330 -216 41 -22 77 -42 78 -46 2 -5 10 -8 17 -8 7 0 40 -13 72 -29 33
-17 78 -36 101 -43 23 -7 42 -16 42 -20 0 -5 9 -8 19 -8 11 0 22 -4 25 -9 3
-5 18 -11 33 -14 16 -3 73 -21 128 -41 55 -19 110 -35 122 -36 12 0 25 -4 28
-10 3 -5 15 -10 26 -10 10 0 27 -4 37 -9 9 -5 53 -17 97 -26 44 -10 89 -21
100 -26 11 -4 34 -10 50 -13 17 -3 53 -10 80 -15 95 -19 210 -41 245 -47 19
-2 58 -9 85 -14 82 -15 204 -32 300 -42 50 -5 128 -12 175 -17 47 -5 159 -14
250 -20 91 -7 212 -16 270 -21 357 -32 1794 -14 2305 29 372 31 493 45 735 82
36 5 94 14 130 19 65 9 174 30 260 50 25 5 68 14 95 20 112 21 174 36 181 43
4 4 20 7 36 7 15 0 28 4 28 9 0 5 25 13 55 16 30 4 55 11 55 16 0 5 11 9 25 9
14 0 33 4 43 9 9 5 42 16 72 26 52 16 67 21 123 44 12 6 33 13 47 17 28 7 89
33 165 70 28 13 56 24 63 24 6 0 12 5 12 10 0 6 6 10 13 10 8 0 51 23 96 50
45 27 87 50 92 50 5 0 9 5 9 10 0 6 7 10 15 10 8 0 15 5 15 10 0 6 6 10 13 10
7 0 24 11 38 23 13 13 30 26 36 28 31 11 248 214 293 274 88 117 136 201 184
320 16 39 32 79 37 90 9 21 30 126 49 240 25 152 -5 517 -59 705 -5 19 -14 51
-19 70 -5 19 -15 53 -22 75 -7 22 -17 54 -22 70 -6 17 -14 39 -18 50 -4 11
-15 40 -25 65 -10 25 -21 54 -25 65 -5 11 -16 41 -27 67 -10 27 -21 48 -25 48
-5 0 -8 6 -8 13 0 11 -119 256 -130 267 -4 4 -24 39 -54 95 -6 11 -14 22 -17
25 -5 4 -18 25 -74 118 -19 32 -90 137 -96 142 -3 3 -18 23 -35 45 -34 47 -36
49 -110 140 -31 39 -60 72 -65 73 -5 2 -9 9 -9 16 0 6 -27 40 -60 74 -33 34
-60 63 -60 65 0 13 -316 316 -410 393 -19 16 -45 38 -58 49 -13 11 -35 24 -50
28 -91 28 -642 47 -787 28 -44 -6 -116 -13 -161 -16 -71 -5 -83 -3 -104 15
-13 11 -26 20 -30 20 -3 0 -15 8 -26 18 -10 10 -34 27 -51 37 -18 11 -33 22
-33 26 0 4 -8 9 -17 13 -10 3 -49 26 -88 51 -38 25 -82 51 -97 58 -16 6 -28
15 -28 19 0 4 -7 8 -15 8 -8 0 -15 4 -15 8 0 5 -19 16 -42 27 -24 10 -45 21
-48 24 -9 10 -215 111 -227 111 -6 0 -13 4 -15 8 -1 4 -33 21 -70 37 -38 15
-68 31 -68 36 0 11 150 42 270 56 30 3 57 10 61 14 4 8 36 1 94 -22 11 -4 45
-15 75 -25 60 -18 96 -32 122 -45 10 -5 23 -9 29 -9 6 0 25 -6 42 -14 54 -23
100 -42 137 -56 19 -7 39 -17 44 -22 6 -4 18 -8 28 -8 10 0 18 -4 18 -10 0 -5
5 -10 11 -10 6 0 47 -18 91 -40 45 -22 87 -40 95 -40 7 0 13 -4 13 -10 0 -5 6
-10 14 -10 8 0 16 -3 18 -7 2 -5 30 -21 63 -38 33 -16 89 -48 125 -71 80 -50
113 -61 215 -69 44 -3 100 -10 125 -15 96 -20 151 -27 155 -20 4 7 -49 60 -61
60 -3 0 -12 7 -20 15 -8 8 -61 45 -117 82 -56 37 -103 71 -105 75 -2 5 -8 8
-14 8 -6 0 -39 18 -74 40 -35 22 -68 40 -74 40 -5 0 -10 3 -10 8 0 4 -15 14
-32 21 -18 8 -39 21 -46 28 -7 7 -20 13 -28 13 -8 0 -14 5 -14 10 0 6 -9 10
-20 10 -11 0 -20 4 -20 8 0 4 -22 16 -50 27 -27 11 -50 23 -50 27 0 4 -4 8
-10 8 -5 0 -58 23 -116 50 -58 28 -110 50 -114 50 -4 0 -22 8 -41 17 -87 44
-131 52 -276 53 -79 0 -173 -4 -210 -10 -38 -5 -122 -14 -188 -20 -66 -5 -147
-14 -180 -19 -136 -22 -187 -31 -194 -35 -8 -5 -77 16 -87 27 -4 4 -17 7 -30
7 -12 0 -24 3 -26 8 -4 9 -100 42 -122 42 -9 0 -16 5 -16 10 0 6 -5 10 -12 10
-14 0 -177 49 -198 59 -8 4 -46 16 -85 26 -38 10 -74 22 -79 27 -6 4 -23 8
-38 8 -16 0 -36 4 -46 9 -22 12 -272 72 -377 91 -27 5 -72 14 -100 20 -94 20
-160 25 -215 18z m1008 -647 c9 -5 35 -17 57 -26 55 -23 120 -53 257 -119 64
-31 121 -56 127 -56 6 0 11 -3 11 -7 0 -11 58 -43 76 -43 8 0 14 -4 14 -10 0
-5 5 -10 12 -10 7 0 52 -23 101 -51 73 -42 93 -50 110 -42 22 10 54 19 172 48
167 42 246 56 349 62 43 2 82 1 85 -4 7 -10 34 -26 79 -49 56 -28 50 -33 -83
-54 -38 -7 -86 -16 -105 -21 -117 -29 -252 -59 -270 -59 -11 0 -20 -4 -20 -10
0 -5 -8 -10 -17 -10 -10 0 -38 -7 -63 -16 -42 -15 -110 -12 -110 4 0 4 -10 12
-23 18 -12 6 -76 38 -142 72 -66 34 -126 62 -132 62 -7 0 -13 5 -13 10 0 6 -4
10 -9 10 -5 0 -45 16 -88 36 -43 20 -94 43 -113 51 -19 9 -49 22 -67 29 -17 8
-34 14 -38 14 -3 0 -34 13 -68 28 -115 53 -138 62 -157 62 -11 0 -20 5 -20 10
0 6 -11 10 -25 10 -14 0 -25 5 -25 10 0 6 -7 10 -16 10 -14 0 -14 3 -4 15 7 8
23 15 36 15 13 0 24 5 24 10 0 13 74 13 98 1z m-2625 -102 c107 -15 113 -31
28 -71 -32 -16 -63 -28 -70 -28 -6 0 -11 -3 -11 -8 0 -4 -9 -12 -20 -17 -98
-50 -150 -80 -150 -87 0 -4 -7 -8 -15 -8 -8 0 -15 -3 -15 -7 0 -5 -17 -16 -39
-26 -21 -10 -51 -30 -66 -43 -15 -13 -31 -24 -35 -24 -3 0 -15 -8 -26 -18 -11
-10 -33 -27 -49 -38 -32 -20 -142 -102 -161 -119 -7 -5 -31 -26 -54 -45 -134
-111 -356 -333 -415 -415 -11 -15 -33 -42 -48 -59 -16 -17 -40 -48 -54 -68
-14 -21 -30 -38 -34 -38 -5 0 -9 -5 -9 -11 0 -10 -13 -29 -60 -86 -6 -7 -10
-15 -10 -19 0 -4 -11 -22 -25 -40 -14 -18 -25 -37 -25 -43 0 -6 -4 -11 -10
-11 -5 0 -10 -7 -10 -15 0 -8 -4 -15 -8 -15 -4 0 -21 -27 -37 -60 -17 -33 -33
-60 -37 -60 -3 0 -9 -13 -13 -30 -4 -16 -10 -30 -13 -30 -4 0 -14 -15 -21 -32
-8 -18 -34 -73 -57 -123 -23 -49 -45 -101 -48 -115 -4 -14 -11 -35 -17 -47 -5
-13 -13 -33 -18 -45 -6 -13 -17 -50 -26 -83 -9 -33 -20 -69 -24 -80 -5 -11
-16 -65 -26 -120 -9 -55 -21 -110 -26 -123 -5 -13 -9 -37 -10 -55 0 -30 -1
-31 -10 -9 -5 13 -6 34 -3 46 3 13 9 65 14 117 16 173 58 362 110 494 57 145
85 211 92 213 4 2 8 9 8 15 0 15 103 221 113 225 4 2 7 8 7 13 0 6 8 22 19 37
10 15 44 68 77 117 32 50 62 92 66 93 5 2 8 10 8 18 0 8 3 14 8 14 4 0 18 17
32 37 14 20 30 41 35 47 6 6 23 29 39 51 17 22 39 49 50 60 12 11 31 34 44 50
66 85 370 375 431 409 9 5 23 16 31 25 26 26 159 121 169 121 5 0 11 4 13 8 3
7 92 67 223 150 33 20 59 30 75 27 14 -2 64 -10 113 -16z m1783 -254 c10 -8
27 -15 37 -15 9 0 17 -4 17 -8 0 -4 23 -16 50 -27 28 -11 50 -23 50 -27 0 -4
7 -8 16 -8 9 0 28 -8 42 -18 15 -10 45 -27 67 -37 22 -11 46 -26 53 -32 7 -7
18 -13 23 -13 6 0 29 -12 52 -27 67 -44 81 -52 102 -62 11 -5 31 -18 44 -30
13 -12 30 -21 38 -21 7 0 13 -4 13 -8 0 -5 22 -21 49 -35 27 -15 54 -34 61
-42 15 -18 34 -19 52 -2 21 20 97 67 108 67 5 0 10 4 10 9 0 5 12 14 28 20 34
15 85 42 92 50 15 17 200 110 280 140 57 22 115 27 124 12 3 -5 22 -12 41 -15
19 -4 35 -11 35 -16 0 -6 9 -10 19 -10 29 0 35 -29 8 -39 -12 -5 -52 -21 -90
-35 -37 -14 -89 -36 -115 -47 -96 -43 -110 -49 -120 -49 -6 0 -12 -3 -14 -8
-1 -4 -41 -26 -88 -50 -110 -55 -164 -85 -168 -94 -2 -5 -10 -8 -18 -8 -8 0
-14 -4 -14 -10 0 -5 -5 -10 -10 -10 -6 0 -28 -11 -50 -25 -40 -26 -80 -33 -80
-15 0 6 -8 10 -19 10 -10 0 -24 7 -31 15 -7 8 -19 15 -26 15 -8 0 -14 5 -14
10 0 6 -5 10 -10 10 -6 0 -16 5 -23 10 -15 13 -177 110 -183 110 -3 0 -22 11
-42 25 -20 14 -45 25 -54 25 -10 0 -18 5 -18 10 0 6 -7 10 -15 10 -8 0 -15 4
-15 8 0 4 -22 16 -50 27 -27 11 -50 23 -50 27 0 4 -9 8 -20 8 -11 0 -20 5 -20
10 0 6 -4 10 -10 10 -15 0 -125 53 -128 62 -2 4 -10 8 -18 8 -9 0 -51 17 -94
37 -62 29 -77 40 -68 50 6 7 16 13 23 13 8 0 15 3 17 8 6 13 62 41 84 42 11 0
29 -7 40 -15z m3189 -55 c6 0 26 -15 46 -32 19 -18 47 -41 62 -51 16 -10 38
-27 50 -37 12 -10 33 -28 47 -40 14 -11 47 -40 75 -63 102 -87 363 -353 423
-432 27 -35 68 -86 100 -123 33 -40 185 -268 228 -342 102 -179 224 -452 224
-503 0 -9 4 -17 8 -17 8 0 23 -58 38 -145 3 -16 9 -39 14 -50 16 -38 30 -191
30 -320 -1 -159 -20 -300 -60 -440 -12 -43 -14 -49 -52 -135 -14 -30 -31 -70
-39 -87 -8 -18 -17 -33 -21 -33 -5 0 -8 -5 -8 -10 0 -15 -79 -138 -115 -180
-112 -130 -305 -300 -411 -362 -22 -12 -41 -25 -44 -28 -8 -9 -84 -51 -102
-57 -10 -3 -18 -9 -18 -14 0 -5 -5 -9 -10 -9 -10 0 -139 -58 -192 -86 -14 -8
-33 -14 -42 -14 -9 0 -16 -4 -16 -10 0 -5 -9 -10 -19 -10 -11 0 -22 -4 -25 -9
-3 -5 -23 -12 -43 -16 -21 -4 -42 -10 -48 -14 -5 -4 -50 -20 -100 -35 -49 -15
-99 -31 -110 -36 -11 -4 -38 -12 -60 -18 -22 -6 -65 -17 -96 -26 -31 -9 -67
-16 -82 -16 -14 0 -28 -4 -31 -9 -3 -5 -23 -11 -43 -14 -35 -5 -143 -25 -253
-47 -167 -32 -479 -70 -740 -90 -356 -26 -1042 -41 -1054 -22 -2 4 -76 9 -163
11 -314 5 -155 11 341 11 279 0 512 2 517 6 5 3 76 10 157 15 352 22 728 67
977 118 28 6 73 14 100 19 95 18 197 43 355 87 52 15 107 29 123 32 15 3 30 9
33 14 3 5 15 9 27 9 12 0 35 7 51 15 15 8 36 15 45 15 9 0 21 4 27 8 5 5 32
17 59 27 50 18 123 49 201 86 22 10 46 19 52 19 7 0 12 4 12 9 0 5 8 11 18 14
9 4 44 21 77 40 93 52 110 62 115 68 3 3 25 18 49 34 25 15 56 38 70 51 14 13
29 24 34 24 14 0 200 192 242 250 21 30 42 57 45 60 22 21 99 186 127 270 38
118 47 184 47 345 -1 199 -22 328 -84 517 -32 94 -36 105 -64 170 -9 20 -16
43 -16 52 0 9 -4 16 -10 16 -5 0 -10 5 -10 12 0 16 -133 281 -150 298 -5 5
-13 18 -57 90 -32 53 -120 177 -145 204 -10 11 -18 23 -18 27 0 4 -7 14 -15
22 -8 8 -47 55 -87 104 -78 95 -362 383 -443 448 -28 22 -55 45 -61 50 -6 6
-23 19 -38 30 -15 11 -40 30 -54 43 -15 12 -45 35 -67 50 -22 15 -46 32 -53
39 -7 7 -51 37 -98 69 -58 37 -83 59 -76 66 10 10 231 28 267 22 11 -2 25 -4
30 -4z m-3691 -44 c30 -15 29 -17 -40 -71 -47 -36 -117 -98 -161 -142 -18 -18
-35 -33 -38 -33 -5 0 -80 -76 -159 -159 -26 -29 -50 -50 -53 -48 -5 6 23 52
49 81 10 11 18 25 18 30 0 6 15 27 33 46 17 20 39 47 48 60 9 14 50 61 92 105
41 44 88 94 103 112 32 35 66 41 108 19z m2506 -186 c30 -22 65 -49 77 -60 12
-11 26 -20 30 -20 5 0 20 -11 35 -25 15 -14 32 -25 38 -25 5 0 10 -3 10 -7 0
-5 16 -19 35 -32 52 -35 90 -70 84 -76 -4 -3 -35 15 -70 40 -35 25 -72 48 -81
52 -10 3 -18 9 -18 14 0 5 -7 9 -15 9 -8 0 -15 4 -15 8 0 5 -15 16 -32 25 -41
21 -68 38 -86 55 -7 6 -20 12 -28 12 -8 0 -14 4 -14 8 0 5 -11 15 -25 22 -14
7 -25 19 -25 27 0 25 46 13 100 -27z m-1410 -330 c22 -11 40 -25 40 -30 0 -5
-28 -30 -62 -57 -35 -26 -68 -52 -74 -58 -7 -5 -24 -19 -40 -30 -15 -11 -32
-24 -38 -30 -6 -5 -47 -41 -91 -80 -82 -72 -160 -150 -252 -249 -55 -60 -63
-65 -63 -41 0 8 5 15 10 15 6 0 10 7 10 15 0 8 4 15 9 15 5 0 12 8 15 18 5 15
19 34 66 89 5 7 10 17 10 23 0 5 4 10 8 10 5 0 13 9 18 19 20 43 295 333 354
374 31 21 32 21 80 -3z m460 -49 c25 -19 51 -40 58 -46 7 -5 27 -22 43 -38 17
-15 51 -44 77 -65 50 -40 239 -218 281 -266 14 -15 44 -47 66 -71 130 -137
195 -213 195 -226 0 -6 -35 25 -78 68 -90 91 -171 166 -262 243 -35 30 -77 66
-92 80 -51 45 -57 50 -68 50 -5 0 -10 3 -10 8 0 4 -16 18 -35 31 -19 13 -44
32 -56 42 -26 22 -80 63 -159 120 -30 21 -60 44 -67 49 -7 6 -17 10 -23 10
-20 0 -5 34 20 47 32 16 55 9 110 -36z m1427 -1 c3 -10 14 -22 24 -25 10 -4
19 -13 19 -21 0 -22 -13 -17 -43 17 -38 44 -40 49 -22 49 9 0 19 -9 22 -20z
m88 -80 c3 -11 10 -20 14 -20 4 0 25 -18 47 -41 21 -22 75 -77 119 -122 89
-91 131 -146 127 -164 -2 -7 6 -13 18 -13 11 0 20 -5 20 -10 0 -6 14 -24 30
-40 17 -16 30 -36 30 -44 0 -7 7 -16 15 -20 8 -3 15 -14 15 -24 0 -10 11 -25
25 -32 23 -12 46 -41 85 -109 8 -14 23 -33 33 -42 9 -9 17 -21 17 -28 0 -6 4
-11 8 -11 5 0 17 -19 28 -42 10 -24 21 -45 24 -48 4 -3 15 -20 25 -37 11 -18
23 -33 27 -33 4 0 8 -6 8 -13 0 -21 30 -77 41 -77 5 0 9 -11 9 -25 0 -14 4
-25 9 -25 5 0 11 -8 15 -17 20 -61 54 -135 69 -153 9 -11 17 -33 17 -49 0 -17
5 -42 12 -58 6 -15 15 -53 20 -83 5 -30 10 -64 12 -75 13 -80 16 -259 6 -320
-7 -38 -14 -87 -17 -107 -3 -21 -11 -38 -17 -38 -7 0 -18 -19 -25 -42 -22 -73
-55 -142 -78 -164 -13 -12 -23 -29 -23 -38 0 -9 -5 -16 -10 -16 -6 0 -16 -11
-22 -25 -6 -14 -15 -25 -21 -25 -10 0 -46 -41 -47 -53 0 -10 -42 -46 -53 -47
-5 0 -24 -16 -43 -35 -18 -19 -40 -35 -49 -35 -8 0 -15 -6 -15 -14 0 -8 -15
-20 -34 -26 -19 -6 -36 -15 -38 -20 -5 -13 -108 -80 -124 -80 -8 0 -14 -5 -14
-10 0 -6 -8 -13 -17 -16 -33 -11 -108 -49 -111 -56 -2 -5 -10 -8 -19 -8 -8 0
-29 -7 -46 -16 -58 -31 -67 -34 -82 -34 -8 0 -15 -4 -15 -10 0 -5 -16 -12 -35
-16 -19 -3 -35 -10 -35 -15 0 -5 -15 -9 -33 -9 -18 0 -38 -5 -44 -11 -10 -10
-63 -26 -231 -70 -40 -10 -81 -23 -91 -29 -11 -5 -31 -10 -45 -10 -14 0 -35
-4 -48 -9 -33 -13 -212 -49 -280 -56 -32 -4 -58 -11 -58 -16 0 -5 -15 -9 -32
-9 -18 0 -51 -7 -73 -15 -22 -8 -68 -14 -102 -15 -34 0 -65 -4 -68 -10 -3 -5
-26 -10 -51 -10 -52 0 -51 16 1 26 19 3 39 12 46 20 6 8 23 14 37 14 14 0 52
13 86 29 34 15 78 31 99 35 20 4 37 11 37 16 0 6 10 10 23 10 12 0 40 9 62 19
22 11 71 35 108 53 103 50 107 52 107 60 0 5 11 8 25 8 14 0 25 4 25 8 0 4 15
13 33 20 38 14 181 97 221 130 16 12 35 22 43 22 16 0 73 56 73 71 0 5 9 9 20
9 10 0 34 13 52 30 53 48 64 56 81 63 9 3 24 18 34 33 9 15 41 51 70 80 29 29
53 57 53 63 0 5 6 14 14 18 17 10 86 108 86 123 0 5 3 10 8 10 4 0 15 20 25
45 11 25 23 45 28 45 5 0 9 7 9 15 0 8 4 23 10 33 28 51 60 136 60 161 0 16 6
31 14 34 19 8 29 120 30 327 0 208 -14 382 -32 388 -7 2 -12 17 -12 33 0 16
-4 29 -10 29 -5 0 -10 15 -10 34 0 18 -7 50 -15 69 -8 20 -15 47 -15 59 0 25
-61 173 -79 191 -6 6 -11 21 -11 32 0 12 -6 35 -14 51 -7 16 -20 44 -27 62 -8
17 -17 32 -21 32 -5 0 -8 11 -8 24 0 13 -7 29 -15 36 -8 7 -15 18 -15 25 0 6
-9 20 -20 30 -11 10 -20 24 -20 32 0 7 -4 13 -10 13 -5 0 -10 7 -10 16 0 15
-44 101 -61 119 -5 5 -9 19 -9 32 0 13 -6 23 -14 23 -19 0 -29 17 -22 35 8 22
44 18 51 -5z m-4411 -1276 c3 -9 6 -44 6 -79 0 -35 5 -67 10 -70 6 -3 10 -30
10 -59 0 -35 5 -58 15 -66 8 -7 15 -23 15 -36 0 -13 5 -24 10 -24 6 0 10 -12
10 -26 0 -28 55 -150 97 -216 12 -21 23 -45 23 -53 0 -9 11 -28 25 -43 14 -15
25 -32 25 -38 0 -6 10 -20 23 -31 12 -11 41 -47 65 -80 49 -70 203 -233 220
-233 6 0 14 -9 17 -20 3 -11 13 -20 20 -20 8 0 29 -16 48 -35 19 -19 37 -35
41 -35 3 0 23 -18 45 -40 21 -22 43 -40 48 -40 5 0 25 -13 43 -30 18 -16 42
-30 52 -30 10 0 18 -5 18 -10 0 -15 52 -59 70 -60 8 0 27 -10 40 -22 14 -13
41 -32 60 -42 19 -11 37 -23 40 -26 3 -4 37 -23 76 -42 90 -45 102 -52 141
-72 17 -9 36 -16 43 -16 6 0 18 -7 26 -15 14 -13 14 -15 0 -15 -16 0 -87 24
-116 39 -9 5 -30 12 -48 16 -18 3 -32 11 -32 16 0 5 -9 9 -20 9 -19 0 -53 14
-165 66 -27 13 -65 27 -82 30 -18 4 -33 10 -33 15 0 5 -7 9 -15 9 -8 0 -15 3
-15 8 0 4 -10 12 -23 18 -49 23 -157 84 -169 94 -7 6 -26 21 -41 35 -15 14
-31 25 -35 25 -4 0 -25 16 -46 35 -22 19 -45 35 -52 35 -18 0 -37 27 -24 35
10 6 14 45 4 45 -3 0 -12 -7 -20 -15 -13 -13 -19 -11 -47 16 -29 28 -30 32
-14 43 24 18 21 26 -8 26 -14 0 -25 -5 -25 -11 0 -5 -5 -7 -12 -3 -9 6 -9 9 0
12 7 2 12 8 12 14 0 6 -6 8 -14 5 -12 -5 -56 42 -56 60 0 5 -11 17 -25 27 -14
10 -25 25 -25 33 0 7 -7 16 -15 19 -8 3 -24 27 -36 52 -13 26 -26 49 -29 52
-14 10 -59 117 -86 200 -14 47 -30 94 -34 105 -11 25 -19 75 -24 140 -3 28
-10 93 -16 145 -6 52 -14 116 -17 143 -5 46 8 66 21 31z"/>
<path d="M7245 5791 c-8 -26 1 -39 16 -24 8 8 8 17 1 29 -9 16 -10 15 -17 -5z"/>
<path d="M7300 5764 c0 -8 5 -12 10 -9 6 4 8 11 5 16 -9 14 -15 11 -15 -7z"/>
<path d="M7581 5414 c0 -11 3 -14 6 -6 3 7 2 16 -1 19 -3 4 -6 -2 -5 -13z"/>
<path d="M7610 5361 c0 -11 4 -22 9 -25 11 -7 20 14 13 32 -7 19 -22 14 -22
-7z"/>
<path d="M7420 5323 c0 -5 5 -15 10 -23 8 -12 10 -11 10 8 0 12 -4 22 -10 22
-5 0 -10 -3 -10 -7z"/>
<path d="M7752 5110 c0 -19 2 -27 5 -17 2 9 2 25 0 35 -3 9 -5 1 -5 -18z"/>
<path d="M7520 5045 c0 -14 5 -25 10 -25 6 0 10 11 10 25 0 14 -4 25 -10 25
-5 0 -10 -11 -10 -25z"/>
<path d="M7562 4905 c0 -16 2 -22 5 -12 2 9 2 23 0 30 -3 6 -5 -1 -5 -18z"/>
<path d="M7561 4484 c0 -11 3 -14 6 -6 3 7 2 16 -1 19 -3 4 -6 -2 -5 -13z"/>
<path d="M7521 4453 c0 -5 4 -17 9 -28 8 -18 9 -17 9 8 1 15 -3 27 -9 27 -5 0
-10 -3 -9 -7z"/>
<path d="M7426 4211 c-4 -7 -5 -15 -2 -18 9 -9 19 4 14 18 -4 11 -6 11 -12 0z"/>
<path d="M7425 4060 c-3 -5 -1 -10 4 -10 6 0 11 5 11 10 0 6 -2 10 -4 10 -3 0
-8 -4 -11 -10z"/>
<path d="M7740 3870 c0 -5 5 -10 10 -10 6 0 10 5 10 10 0 6 -4 10 -10 10 -5 0
-10 -4 -10 -10z"/>
<path d="M7200 3824 c0 -8 5 -12 10 -9 6 4 8 11 5 16 -9 14 -15 11 -15 -7z"/>
<path d="M7710 3825 c0 -8 5 -15 10 -15 6 0 10 7 10 15 0 8 -4 15 -10 15 -5 0
-10 -7 -10 -15z"/>
<path d="M7140 3765 c0 -14 5 -25 10 -25 6 0 10 11 10 25 0 14 -4 25 -10 25
-5 0 -10 -11 -10 -25z"/>
<path d="M7060 3680 c0 -5 7 -10 15 -10 8 0 15 5 15 10 0 6 -7 10 -15 10 -8 0
-15 -4 -15 -10z"/>
<path d="M7043 3483 c9 -2 25 -2 35 0 9 3 1 5 -18 5 -19 0 -27 -2 -17 -5z"/>
<path d="M7020 3425 c0 -9 9 -15 21 -15 18 0 19 2 5 15 -8 8 -17 15 -20 15 -3
0 -6 -7 -6 -15z"/>
<path d="M6395 3260 c3 -5 10 -10 16 -10 5 0 9 5 9 10 0 6 -7 10 -16 10 -8 0
-12 -4 -9 -10z"/>
<path d="M6310 3230 c0 -5 10 -10 23 -10 18 0 19 2 7 10 -19 13 -30 13 -30 0z"/>
<path d="M6068 3153 c7 -3 16 -2 19 1 4 3 -2 6 -13 5 -11 0 -14 -3 -6 -6z"/>
<path d="M2730 4345 c0 -8 5 -15 10 -15 6 0 10 7 10 15 0 8 -4 15 -10 15 -5 0
-10 -7 -10 -15z"/>
<path d="M2797 4184 c6 -15 23 -19 23 -5 0 5 -7 11 -14 14 -10 4 -13 1 -9 -9z"/>
<path d="M2912 4000 c0 -14 2 -19 5 -12 2 6 2 18 0 25 -3 6 -5 1 -5 -13z"/>
<path d="M3052 3829 c2 -7 10 -15 17 -17 8 -3 12 1 9 9 -2 7 -10 15 -17 17 -8
3 -12 -1 -9 -9z"/>
<path d="M3230 3680 c-13 -8 -12 -10 3 -10 9 0 17 5 17 10 0 12 -1 12 -20 0z"/>
<path d="M3270 3640 c0 -5 5 -10 10 -10 6 0 10 5 10 10 0 6 -4 10 -10 10 -5 0
-10 -4 -10 -10z"/>
<path d="M3480 3450 c0 -5 9 -10 21 -10 11 0 17 5 14 10 -3 6 -13 10 -21 10
-8 0 -14 -4 -14 -10z"/>
<path d="M4608 7461 c-70 -8 -103 -21 -53 -21 26 0 63 -9 120 -30 26 -9 102
-30 138 -37 15 -3 27 -9 27 -14 0 -5 9 -9 21 -9 11 0 30 -5 41 -11 14 -7 28
-8 42 -1 43 20 72 31 121 47 28 10 59 21 70 25 11 4 40 14 65 21 l45 14 -80 7
c-133 11 -485 16 -557 9z"/>
<path d="M6535 7150 c3 -5 12 -10 18 -10 7 0 23 -10 37 -23 14 -13 40 -32 58
-42 17 -11 32 -23 32 -27 0 -4 5 -8 10 -8 6 0 23 -11 38 -25 15 -14 30 -25 35
-25 4 0 19 -11 33 -25 24 -24 30 -25 102 -20 42 4 83 9 91 11 20 6 -156 92
-319 155 -41 16 -83 34 -92 39 -23 13 -51 13 -43 0z"/>
<path d="M1570 2774 c-52 -8 -135 -17 -185 -20 -49 -4 -94 -10 -100 -14 -5 -4
-67 -11 -138 -15 -70 -4 -130 -11 -133 -16 -3 -5 -33 -9 -68 -9 -34 0 -66 -4
-72 -9 -5 -5 -36 -11 -69 -15 -33 -3 -105 -13 -160 -21 -55 -9 -118 -18 -140
-21 -22 -3 -44 -10 -50 -15 -5 -5 -19 -9 -32 -9 -12 0 -32 -4 -45 -9 -79 -30
-107 -45 -112 -57 -7 -18 30 -51 65 -59 16 -4 31 -11 34 -16 4 -5 17 -9 30 -9
13 0 26 -4 29 -9 3 -5 23 -11 43 -15 21 -3 83 -13 138 -21 55 -9 127 -19 160
-21 33 -3 69 -9 80 -14 11 -5 49 -11 85 -14 36 -2 139 -12 230 -21 91 -9 210
-18 265 -21 55 -3 109 -9 120 -14 11 -5 63 -12 115 -14 52 -3 199 -12 325 -21
127 -9 264 -18 305 -20 41 -3 145 -10 230 -16 558 -40 1101 -51 2525 -51 1454
0 1895 10 2720 62 77 5 257 16 400 25 245 15 327 21 605 44 463 40 519 46 695
70 39 6 106 15 150 21 44 5 93 15 109 20 16 6 42 10 57 10 15 0 31 5 34 10 3
6 17 10 30 10 13 0 26 4 29 9 3 5 18 12 33 16 32 8 64 41 57 59 -8 21 -41 36
-154 68 -90 25 -273 56 -390 65 -36 2 -69 9 -74 14 -6 5 -37 9 -69 9 -33 0
-76 4 -96 10 -32 9 -126 17 -416 36 -44 3 -85 10 -91 15 -15 12 -181 14 -197
1 -6 -5 -34 -17 -62 -27 -61 -21 -83 -29 -115 -43 -14 -6 -54 -19 -90 -28 -36
-9 -69 -21 -74 -25 -6 -5 -18 -9 -28 -9 -10 0 -26 -4 -36 -9 -26 -14 -126 -41
-150 -41 -11 0 -23 -4 -26 -9 -3 -5 -23 -11 -43 -14 -21 -3 -78 -14 -127 -26
-50 -12 -100 -21 -113 -21 -13 0 -31 -4 -41 -9 -19 -10 -137 -30 -220 -38 -29
-3 -55 -9 -58 -14 -3 -5 -32 -9 -64 -9 -32 0 -62 -4 -65 -10 -3 -5 -30 -10
-59 -10 -29 0 -79 -5 -112 -11 -66 -12 -207 -27 -514 -54 -380 -33 -871 -49
-1545 -49 -515 0 -987 12 -1120 29 -27 3 -108 11 -180 16 -264 22 -617 67
-825 108 -25 4 -76 14 -115 21 -38 7 -79 16 -90 20 -11 4 -47 13 -80 20 -33 6
-76 16 -95 20 -19 5 -48 12 -65 15 -16 4 -39 10 -50 15 -11 4 -49 15 -85 25
-36 9 -73 21 -82 26 -10 5 -25 9 -33 9 -8 0 -23 4 -33 9 -9 5 -39 17 -67 26
-27 9 -61 21 -75 27 -34 14 -56 23 -115 43 -27 10 -54 21 -60 25 -9 6 -36 14
-85 24 -8 2 -58 -3 -110 -10z"/>
</g>
</svg>
